#!OML:ASF I:\Actors\actors\Patient Classification 1\Patient 1\Session 1\Subject1.ASF
:FULLY-SPECIFIED
:DEGREES
283
root 0.689633 17.6432 7.32516 4.70386 5.40866 -9.5668
lowerback 3.42449 0.407402 8.51151
upperback -6.76765 1.41548 2.26322
thorax -9.00571 0.201368 -2.50448
lowerneck -12.6307 -6.34836 -1.22687
upperneck 26.1094 -10.1657 4.95495
head 10.8222 -4.19554 0.645821
rclavicle 3.18055e-015 1.39149e-015
rhumerus 54.2867 -21.6379 -122.144
rradius 14.8059
rwrist 105.463
rhand -34.8797 -58.9963
rfingers 7.12502
rthumb -8.02862 -88.8238
lclavicle 3.18055e-015 1.39149e-015
lhumerus 50.343 -28.3448 77.2453
lradius 25.3688
lwrist -20.8807
lhand -51.0237 -22.3427
lfingers 7.12502
lthumb -23.5713 6.23277
rfemur -7.38066 19.8681 26.691
rtibia 8.71962
rfoot -10.6852 -24.287
rtoes 3.98234
lfemur -5.46455 -30.6922 -3.83207
ltibia 1.66906
lfoot -5.36974 31.8084
ltoes -12.1169
284
root 0.688486 17.6361 7.32744 4.62749 5.2029 -9.57201
lowerback 3.45413 0.461956 8.48495
upperback -6.8347 1.49248 2.23408
thorax -9.08882 0.234734 -2.52916
lowerneck -12.8434 -6.61785 -1.93961
upperneck 26.4803 -10.6434 5.729
head 11.1166 -4.37187 0.959092
rclavicle 9.0447e-015 1.49089e-014
rhumerus 54.4466 -23.0428 -123.512
rradius 14.5693
rwrist 107.922
rhand -35.1304 -59.2538
rfingers 7.12502
rthumb -8.27059 -89.0719
lclavicle 9.0447e-015 1.49089e-014
lhumerus 50.1055 -28.545 76.9297
lradius 24.8921
lwrist -20.9972
lhand -51.5723 -23.4513
lfingers 7.12502
lthumb -24.0975 5.05546
rfemur -7.28314 19.8333 26.6969
rtibia 8.7093
rfoot -10.8331 -24.0666
rtoes 3.69632
lfemur -5.10556 -31.174 -3.99524
ltibia 1.47599
lfoot -5.35194 32.4638
ltoes -11.8771
285
root 0.680753 17.62 7.32732 4.51628 4.90151 -9.64997
lowerback 3.54563 0.49956 8.48879
upperback -6.84685 1.55887 2.29109
thorax -9.15133 0.266401 -2.47889
lowerneck -13.0236 -6.68601 -2.31708
upperneck 26.7451 -10.7465 5.96524
head 11.2968 -4.41381 1.08224
rclavicle 3.77691e-015 -5.36719e-015
rhumerus 55.3367 -24.9977 -126.714
rradius 14.3951
rwrist 111.183
rhand -35.2867 -59.3582
rfingers 7.12502
rthumb -8.42144 -89.1703
lclavicle 3.77691e-015 -5.36719e-015
lhumerus 49.6252 -28.2561 77.235
lradius 24.4549
lwrist -21.3985
lhand -52.1149 -24.5654
lfingers 7.12502
lthumb -24.6176 3.87146
rfemur -7.07871 19.8912 26.8222
rtibia 8.57471
rfoot -11.0122 -23.7862
rtoes 3.72338
lfemur -4.699 -31.5185 -4.07215
ltibia 1.31926
lfoot -5.44773 33.1039
ltoes -11.4978
286
root 0.66777 17.5998 7.32877 4.364 4.59709 -9.74156
lowerback 3.65941 0.549377 8.53181
upperback -6.83508 1.64512 2.3403
thorax -9.19809 0.305803 -2.4614
lowerneck -13.1597 -6.65868 -2.51955
upperneck 26.9841 -10.6643 5.9119
head 11.4193 -4.39206 1.10204
rclavicle -1.39149e-015 -4.57205e-014
rhumerus 54.7357 -24.9978 -126.229
rradius 14.4306
rwrist 110.355
rhand -35.2815 -59.8082
rfingers 7.12502
rthumb -8.41645 -89.6205
lclavicle -1.39149e-015 -4.57205e-014
lhumerus 48.634 -27.342 78.847
lradius 23.932
lwrist -22.9046
lhand -53.0146 -27.4885
lfingers 7.12502
lthumb -25.4797 0.828058
rfemur -6.75082 19.9359 27.0218
rtibia 8.34256
rfoot -11.1306 -23.5149
rtoes 3.30746
lfemur -4.31506 -31.5164 -4.10724
ltibia 1.2515
lfoot -5.44627 33.3692
ltoes -11.5678
287
root 0.649609 17.5836 7.33301 4.22404 4.33366 -9.84905
lowerback 3.78082 0.644939 8.64634
upperback -6.88286 1.7968 2.29392
thorax -9.30526 0.364181 -2.59299
lowerneck -13.1527 -6.679 -2.66742
upperneck 27.2013 -10.686 5.93814
head 11.5133 -4.4071 1.13189
rclavicle 1.70706e-014 -4.9895e-014
rhumerus 54.5467 -25.4401 -126.493
rradius 14.4614
rwrist 110.414
rhand -35.4557 -60.0493
rfingers 7.12502
rthumb -8.58457 -89.8548
lclavicle 1.70706e-014 -4.9895e-014
lhumerus 47.758 -26.8935 80.0478
lradius 23.5185
lwrist -23.7276
lhand -54.4658 -32.3464
lfingers 7.12502
lthumb -26.8692 -4.23577
rfemur -6.36707 20.0659 27.281
rtibia 8.00763
rfoot -11.152 -23.3891
rtoes 2.65442
lfemur -4.03595 -31.245 -4.03015
ltibia 1.24159
lfoot -5.47825 33.3058
ltoes -11.5165
288
root 0.62894 17.5763 7.34267 4.21919 4.13252 -9.91529
lowerback 3.72923 0.718996 8.788
upperback -6.99076 1.90134 2.18615
thorax -9.37869 0.394736 -2.79689
lowerneck -13.1199 -6.68603 -2.78618
upperneck 27.4778 -10.7191 6.01983
head 11.6284 -4.41678 1.17633
rclavicle 7.45443e-016 -1.63003e-014
rhumerus 53.2822 -24.6455 -124.462
rradius 14.726
rwrist 108.51
rhand -35.7444 -59.9232
rfingers 7.12502
rthumb -8.86314 -89.717
lclavicle 7.45443e-016 -1.63003e-014
lhumerus 47.4829 -27.6494 78.977
lradius 23.7854
lwrist -22.1967
lhand -55.3947 -35.7079
lfingers 7.12502
lthumb -27.7576 -7.73722
rfemur -6.06438 20.2782 27.4693
rtibia 7.55642
rfoot -11.1022 -23.4193
rtoes 2.18629
lfemur -3.96009 -30.9456 -3.87542
ltibia 1.26438
lfoot -5.62269 33.1753
ltoes -11.4001
289
root 0.608101 17.5775 7.35793 4.35758 3.94796 -9.92271
lowerback 3.40301 0.773817 8.89673
upperback -7.11445 1.94562 2.07795
thorax -9.31241 0.403666 -2.97058
lowerneck -13.076 -6.64292 -2.96652
upperneck 27.797 -10.6848 6.1542
head 11.7623 -4.3952 1.26096
rclavicle 2.28602e-015 -1.09332e-014
rhumerus 54.0202 -26.3125 -127.338
rradius 15.0451
rwrist 112.391
rhand -36.269 -59.6899
rfingers 7.12502
rthumb -9.36934 -89.4617
lclavicle 2.28602e-015 -1.09332e-014
lhumerus 47.5648 -28.7581 76.7956
lradius 24.2689
lwrist -20.5168
lhand -54.4457 -33.2291
lfingers 7.12502
lthumb -26.8499 -5.11559
rfemur -5.88161 20.546 27.5589
rtibia 7.07924
rfoot -11.0867 -23.5191
rtoes 2.04818
lfemur -4.03552 -30.7537 -3.73168
ltibia 1.32508
lfoot -5.7341 33.1482
ltoes -11.6036
290
root 0.586882 17.5847 7.37138 4.44253 3.7811 -9.96228
lowerback 3.10641 0.805784 9.02041
upperback -7.22094 1.96395 1.99339
thorax -9.24848 0.400186 -3.1248
lowerneck -12.9799 -6.44017 -2.78135
upperneck 28.1142 -10.3919 5.90577
head 11.8222 -4.26855 1.18643
rclavicle -5.66536e-015 -3.57812e-015
rhumerus 53.4985 -25.9868 -126.243
rradius 14.6784
rwrist 112.717
rhand -36.4237 -60.0539
rfingers 7.12502
rthumb -9.51866 -89.8189
lclavicle -5.66536e-015 -3.57812e-015
lhumerus 47.5699 -29.3879 75.1727
lradius 24.4099
lwrist -20.281
lhand -53.7778 -32.0122
lfingers 7.12502
lthumb -26.2106 -3.80203
rfemur -5.70442 20.8903 27.7247
rtibia 6.73624
rfoot -11.0828 -23.6934
rtoes 1.98997
lfemur -4.10567 -30.5158 -3.57702
ltibia 1.45846
lfoot -5.88778 33.0761
ltoes -11.6479
291
root 0.566942 17.5922 7.38153 4.40278 3.66363 -9.90549
lowerback 2.97843 0.799293 9.02778
upperback -7.29893 1.93679 1.87878
thorax -9.25868 0.378865 -3.24587
lowerneck -12.7356 -6.02239 -1.66873
upperneck 28.2797 -9.7147 4.72044
head 11.6629 -3.99643 0.677168
rclavicle -9.88954e-015 2.78299e-014
rhumerus 53.5958 -26.5492 -126.875
rradius 14.6469
rwrist 114.815
rhand -36.3845 -59.8549
rfingers 7.12502
rthumb -9.4808 -89.6217
lclavicle -9.88954e-015 2.78299e-014
lhumerus 46.9525 -28.8847 75.6293
lradius 24.0169
lwrist -21.5727
lhand -52.6735 -31.5769
lfingers 7.12502
lthumb -25.153 -3.21403
rfemur -5.49555 21.1178 27.8174
rtibia 6.56279
rfoot -11.0044 -23.832
rtoes 1.9162
lfemur -4.05125 -30.3668 -3.64659
ltibia 1.63718
lfoot -6.2018 33.0473
ltoes -11.0764
292
root 0.549515 17.5946 7.39211 4.31022 3.56932 -9.73657
lowerback 2.88831 0.797043 8.87389
upperback -7.34937 1.90475 1.75475
thorax -9.26184 0.367387 -3.28817
lowerneck -12.7647 -6.14848 -1.66428
upperneck 28.5401 -9.94586 4.78619
head 11.7848 -4.08412 0.664051
rclavicle -1.09332e-015 -2.78299e-014
rhumerus 53.6568 -27.0734 -127.355
rradius 14.7037
rwrist 116.407
rhand -36.3314 -59.6069
rfingers 7.12502
rthumb -9.42959 -89.376
lclavicle -1.09332e-015 -2.78299e-014
lhumerus 45.6205 -26.7474 79.1084
lradius 22.7688
lwrist -24.6946
lhand -50.661 -31.5834
lfingers 7.12502
lthumb -23.2234 -2.96366
rfemur -5.2963 21.0833 27.7633
rtibia 6.47801
rfoot -10.9267 -23.7368
rtoes 1.97213
lfemur -3.82954 -30.5384 -3.97438
ltibia 1.71753
lfoot -6.35107 33.3152
ltoes -10.4471
